<svg xmlns="http://www.w3.org/2000/svg" viewBox="0 0 700 360"><defs><linearGradient id="g" x1="0" x2="1"><stop offset="0" stop-color="#e63946"/><stop offset="1" stop-color="#7f1d1d"/></linearGradient></defs><rect width="700" height="360" fill="none"/><path d="M120 225c18-55 65-96 134-96h160c63 0 111 38 139 96h45c21 0 38 17 38 38v14H64v-13c0-22 18-39 39-39h17z" fill="url(#g)"/><path d="M258 146h152c42 0 76 27 99 76H193c16-43 38-76 65-76z" fill="#1a1a1a" opacity=".94"/><path d="M280 158h54v51h-89c10-26 21-43 35-51zm75 0h55c25 4 46 23 63 51H355z" fill="#0f0f0f"/><circle cx="185" cy="280" r="45" fill="#0b0b0b" stroke="#2f2f2f" stroke-width="12"/><circle cx="515" cy="280" r="45" fill="#0b0b0b" stroke="#2f2f2f" stroke-width="12"/><circle cx="185" cy="280" r="17" fill="#999"/><circle cx="515" cy="280" r="17" fill="#999"/><path d="M90 238h60m395 0h72" stroke="#fff" stroke-opacity=".35" stroke-width="10" stroke-linecap="round"/></svg>
