<svg xmlns="http://www.w3.org/2000/svg" viewBox="0 0 700 360"><defs><linearGradient id="g" x1="0" x2="1"><stop offset="0" stop-color="#e63946"/><stop offset="1" stop-color="#6b1118"/></linearGradient></defs><rect width="700" height="360" fill="none"/><path d="M82 220h95l42-84h170c38 0 70 31 90 84h118c27 0 49 22 49 49v11H55v-33c0-15 12-27 27-27z" fill="url(#g)"/><path d="M236 152h145c24 0 47 22 65 65H193z" fill="#121212" opacity=".95"/><path d="M250 164h58v41h-78zm76 0h55c18 3 35 18 50 41H326z" fill="#0c0c0c"/><path d="M480 220h113" stroke="#290709" stroke-width="10" opacity=".55"/><circle cx="178" cy="281" r="45" fill="#0b0b0b" stroke="#333" stroke-width="12"/><circle cx="520" cy="281" r="45" fill="#0b0b0b" stroke="#333" stroke-width="12"/><circle cx="178" cy="281" r="17" fill="#aaa"/><circle cx="520" cy="281" r="17" fill="#aaa"/></svg>
