<svg xmlns="http://www.w3.org/2000/svg" viewBox="0 0 700 360"><defs><linearGradient id="g" x1="0" x2="1"><stop offset="0" stop-color="#f43f5e"/><stop offset="1" stop-color="#7f1d1d"/></linearGradient></defs><rect width="700" height="360" fill="none"/><path d="M80 238c54-70 124-106 224-106h104c76 0 134 35 183 95l55 11c15 3 25 16 25 31v9H36v-13c0-18 13-33 31-36z" fill="url(#g)"/><path d="M261 150h142c42 0 82 20 118 61H190c25-34 49-54 71-61z" fill="#111" opacity=".95"/><path d="M275 160h65v42h-112c16-23 31-37 47-42zm83 0h45c28 1 55 15 81 42H358z" fill="#090909"/><circle cx="176" cy="280" r="44" fill="#0b0b0b" stroke="#2d2d2d" stroke-width="12"/><circle cx="525" cy="280" r="44" fill="#0b0b0b" stroke="#2d2d2d" stroke-width="12"/><circle cx="176" cy="280" r="16" fill="#aaa"/><circle cx="525" cy="280" r="16" fill="#aaa"/><path d="M85 246h55m425-2h70" stroke="#fff" stroke-opacity=".4" stroke-width="9" stroke-linecap="round"/></svg>
