<svg xmlns="http://www.w3.org/2000/svg" viewBox="0 0 700 360"><defs><linearGradient id="g" x1="0" x2="1"><stop offset="0" stop-color="#ef4444"/><stop offset="1" stop-color="#991b1b"/></linearGradient></defs><rect width="700" height="360" fill="none"/><path d="M98 223l40-92h318c61 0 102 38 133 92h32c24 0 43 19 43 43v14H54v-18c0-22 18-39 40-39h4z" fill="url(#g)"/><path d="M164 148h275c42 0 76 23 100 65H127l37-65z" fill="#121212" opacity=".95"/><path d="M185 160h88v43H161zm108 0h96v43h-96zm116 0h35c26 0 49 16 68 43H409z" fill="#0c0c0c"/><circle cx="180" cy="280" r="46" fill="#0b0b0b" stroke="#333" stroke-width="13"/><circle cx="523" cy="280" r="46" fill="#0b0b0b" stroke="#333" stroke-width="13"/><circle cx="180" cy="280" r="18" fill="#aaa"/><circle cx="523" cy="280" r="18" fill="#aaa"/><path d="M94 238h70m390 0h70" stroke="#fff" stroke-opacity=".35" stroke-width="11" stroke-linecap="round"/></svg>
